# xmcd
#
# Track frame offsets:
#	150
#	10212
#	20617
#	31587
#	44480
#	55905
#	68157
#	78185
#	92872
#	106250
#	117447
#	130980
#
# Disc length: 1864
#
# Revision: 1
# Processed by: cddbd v1.5.1PL0 Copyright (c) Steve Scherf et al.
# Submitted via: VisiTrax 2.9.5.181 - For more info visit www.synapsa.com
# Normalized: r0:DSETVAR1
#
DISCID=9607460c
DTITLE=Various Artist - Classic Country
DYEAR=1900
DGENRE=
TTITLE0=Johnny Cash - Ballad of a Tennage Queen
TTITLE1=Carl Perkins - Blue Suede Shoes
TTITLE2=Charlie Rich - C.C. Rider
TTITLE3=Leroy Van Dyke - The Auctioneer
TTITLE4=Ned Miller - Do What You Do Do Well
TTITLE5=Roy Acuff - The Great Speckled Bird
TTITLE6=Dave Dudley - Easbound and Down
TTITLE7=Don Gibson - I Can't Stop Loving You
TTITLE8=Lorrie Morgan - Making Love for the First Time
TTITLE9=Jerry Lee Lewis - Be-Bop-a-Lula
TTITLE10=Patti Page - Allegheny Moon
TTITLE11=Jerry Lee Lewis - Don't Be Cruel
EXTD=
EXTT0=
EXTT1=
EXTT2=
EXTT3=
EXTT4=
EXTT5=
EXTT6=
EXTT7=
EXTT8=
EXTT9=
EXTT10=
EXTT11=
PLAYORDER=
